<svg width="162" height="188" viewBox="0 0 162 188" fill="none" xmlns="http://www.w3.org/2000/svg">
<path d="M145.921 66.3484C145.921 75.1574 149.305 85.4614 152.725 95.876C152.939 96.5267 153.153 97.1778 153.366 97.829C157.025 109.007 160.505 120.257 160.115 130.325C159.92 135.333 158.767 140.012 156.218 144.227C153.67 148.44 149.692 152.248 143.752 155.459C131.835 161.902 112.104 165.897 80.5723 165.897C49.041 165.897 29.3101 161.902 17.3927 155.459C11.4531 152.248 7.47416 148.44 4.92633 144.227C2.37748 140.012 1.2244 135.333 1.03001 130.325C0.639191 120.257 4.11949 109.007 7.77849 97.829C7.99166 97.1778 8.20551 96.5267 8.41921 95.876C11.8397 85.4615 15.2239 75.1574 15.2239 66.3484C15.2239 30.2575 44.4814 1 80.5723 1C116.663 1 145.921 30.2575 145.921 66.3484Z" fill="white" stroke="black" stroke-width="2"/>
<path d="M92.5078 174.253C92.5078 181.262 86.8242 187 79.8276 187C72.8309 187 67.1477 181.262 67.1477 174.253C67.1477 172.482 67.5091 171.461 68.0019 170.848C68.4833 170.25 69.2149 169.886 70.3162 169.706C71.4353 169.522 72.8101 169.548 74.4515 169.632C74.8146 169.651 75.1899 169.672 75.5756 169.694C76.8967 169.769 78.3392 169.852 79.8276 169.852C81.3159 169.852 82.7584 169.769 84.0795 169.694C84.4652 169.672 84.8406 169.651 85.2037 169.632C86.8451 169.548 88.22 169.522 89.3392 169.706C90.4405 169.886 91.1722 170.25 91.6536 170.848C92.1465 171.461 92.5078 172.482 92.5078 174.253Z" fill="white" stroke="black" stroke-width="2"/>
</svg>
